# xmcd
#
# Track frame offsets: 
#        150
#        14517
#        31687
#        48347
#        73207
#        90637
#        106930
#        129490
#        150002
#        166537
#        194197
#        207340
#
# Disc length: 2959 seconds
#
# Revision: 2
# Processed by: cddbd v1.5.2PL0 Copyright (c) Steve Scherf et al.
# Submitted via: ExactAudioCopy v0.99pb4
#
DISCID=950b8d0c
DTITLE=Αχαιοί - 49 19
DYEAR=1998
DGENRE=Ελληνικό ροκ
TTITLE0=Μια μυρωδιά
TTITLE1=Ο ωκεανός
TTITLE2=Αν θυμηθείς
TTITLE3=Γελάει
TTITLE4=Αιώνια έλξη
TTITLE5=Χορεύω
TTITLE6=Υγρή πτήση
TTITLE7=Πυξίδα
TTITLE8=Ανατολή
TTITLE9=Απ'το τέλος στην αρχή
TTITLE10=Το δέκα
TTITLE11=Ο γλάρος
EXTD=
EXTT0=
EXTT1=
EXTT2=
EXTT3=
EXTT4=
EXTT5=
EXTT6=
EXTT7=
EXTT8=
EXTT9=
EXTT10=
EXTT11=
PLAYORDER=
